# xmcd
#
# Track frame offsets:
#	225
#	10030
#	21939
#	38509
#	54157
#	72230
#	89161
#	108702
#	120552
#	137389
#	148448
#	161865
#	174220
#	190860
#	204524
#	215584
#	228602
#	240289
#
# Disc length: 3471 seconds
#
# Revision: 1
# Processed by: cddbd v1.5.1PL2 Copyright (c) Steve Scherf et al.
# Submitted via: audiograbber 1.83.01
#
DISCID=fb0d8c12
DTITLE=Various Artist - Country Ballads CD2
DYEAR=1900
DGENRE=Country
TTITLE0=Ersel Hickey - Blue Birds  Over The Mountain
TTITLE1=Sandy Posey - Bring Him Home Safely To Me
TTITLE2=Gordon Lightfoot - Diddley Dee, Diddley Dee
TTITLE3=Tom Paxton - I Can't Help Wonder Where I've Gone
TTITLE4=It's A Beautiful Day - White Bird
TTITLE5=Linda Ronstadt - I'm Gonna Love
TTITLE6=Lucky - Broken Dreams
TTITLE7=The Kendalls - Sweet Desire
TTITLE8=Conway Twitty and Jackie Bell - Don't Cry Joni
TTITLE9=Bill Anderson - I Get The Fever
TTITLE10=The Oak Ridge Boys - Hide Thou Me
TTITLE11=Merle Haggard - If We Make It Through December
TTITLE12=Lee Greenwood - Somebody's Gonna Love You
TTITLE13=T. Graham Brown - I Tell It Like It Used To Be
TTITLE14=Mel McDaniel - Stand Up
TTITLE15=Patsy Cline - Life's A Railway To Heaven
TTITLE16=Jerry Wallace - If You Leave Me Tonight (I Will Cry)
TTITLE17=Bread - Make It By Yourself
EXTD=
EXTT0=
EXTT1=
EXTT2=
EXTT3=
EXTT4=
EXTT5=
EXTT6=
EXTT7=
EXTT8=
EXTT9=
EXTT10=
EXTT11=
EXTT12=
EXTT13=
EXTT14=
EXTT15=
EXTT16=
EXTT17=
PLAYORDER=
